{
	"asset":{
		"generator":"Khronos glTF Blender I/O v4.1.63",
		"version":"2.0"
	},
	"extensionsUsed":[
		"KHR_materials_specular",
		"KHR_materials_ior"
	],
	"scene":0,
	"scenes":[
		{
			"name":"Scene",
			"nodes":[
				0,
				2
			]
		}
	],
	"nodes":[
		{
			"mesh":0,
			"name":"Plane",
			"rotation":[
				0.7067851424217224,
				-0.02132418379187584,
				0.02132418379187584,
				0.7067852020263672
			],
			"scale":[
				0.0949169397354126,
				0.0949169397354126,
				0.09547552466392517
			],
			"translation":[
				0.17600136995315552,
				0.14848972856998444,
				-3.573923459043726e-05
			]
		},
		{
			"mesh":1,
			"name":"Circle",
			"translation":[
				0,
				0.015000798739492893,
				0
			]
		},
		{
			"children":[
				1
			],
			"mesh":2,
			"name":"Circle.002",
			"rotation":[
				0.03058895654976368,
				0.007731766905635595,
				0.9690262675285339,
				0.2449343204498291
			],
			"scale":[
				0.09547553211450577,
				0.09547553956508636,
				0.09547553956508636
			],
			"translation":[
				0.07543773204088211,
				0.02897964045405388,
				-2.9509568776120432e-05
			]
		}
	],
	"materials":[
		{
			"alphaMode":"BLEND",
			"doubleSided":true,
			"name":"Balloon shader",
			"pbrMetallicRoughness":{}
		},
		{
			"doubleSided":true,
			"extensions":{
				"KHR_materials_specular":{
					"specularFactor":0.5454545021057129
				},
				"KHR_materials_ior":{
					"ior":1.4500000476837158
				}
			},
			"name":"Material.003",
			"pbrMetallicRoughness":{
				"baseColorFactor":[
					0,
					0,
					0,
					1
				],
				"metallicFactor":0,
				"roughnessFactor":0.30000001192092896
			}
		},
		{
			"alphaMode":"BLEND",
			"doubleSided":true,
			"name":"Glass",
			"pbrMetallicRoughness":{}
		}
	],
	"meshes":[
		{
			"name":"Plane.001",
			"primitives":[
				{
					"attributes":{
						"POSITION":0,
						"NORMAL":1,
						"TEXCOORD_0":2,
						"TEXCOORD_1":3
					},
					"indices":4,
					"material":0
				}
			]
		},
		{
			"name":"Circle",
			"primitives":[
				{
					"attributes":{
						"POSITION":5,
						"NORMAL":6,
						"TEXCOORD_0":7
					},
					"indices":8,
					"material":1
				}
			]
		},
		{
			"name":"Circle.002",
			"primitives":[
				{
					"attributes":{
						"POSITION":9,
						"NORMAL":10,
						"TEXCOORD_0":11,
						"TEXCOORD_1":12
					},
					"indices":13,
					"material":2
				}
			]
		}
	],
	"accessors":[
		{
			"bufferView":0,
			"componentType":5126,
			"count":49262,
			"max":[
				0.4373902380466461,
				0.4278411269187927,
				1.699005126953125
			],
			"min":[
				-0.4181511700153351,
				-0.42771053314208984,
				-0.2594490349292755
			],
			"type":"VEC3"
		},
		{
			"bufferView":1,
			"componentType":5126,
			"count":49262,
			"type":"VEC3"
		},
		{
			"bufferView":2,
			"componentType":5126,
			"count":49262,
			"type":"VEC2"
		},
		{
			"bufferView":3,
			"componentType":5126,
			"count":49262,
			"type":"VEC2"
		},
		{
			"bufferView":4,
			"componentType":5123,
			"count":270330,
			"type":"SCALAR"
		},
		{
			"bufferView":5,
			"componentType":5126,
			"count":26011,
			"max":[
				0.27883416414260864,
				0.47809144854545593,
				0.27883416414260864
			],
			"min":[
				-0.27883416414260864,
				-0.33421772718429565,
				-0.27883395552635193
			],
			"type":"VEC3"
		},
		{
			"bufferView":6,
			"componentType":5126,
			"count":26011,
			"type":"VEC3"
		},
		{
			"bufferView":7,
			"componentType":5126,
			"count":26011,
			"type":"VEC2"
		},
		{
			"bufferView":8,
			"componentType":5123,
			"count":156054,
			"type":"SCALAR"
		},
		{
			"bufferView":9,
			"componentType":5126,
			"count":10344,
			"max":[
				0.06941506266593933,
				0.0009081819443963468,
				0.06941212713718414
			],
			"min":[
				-0.06946665048599243,
				-1.8417410850524902,
				-0.06940757483243942
			],
			"type":"VEC3"
		},
		{
			"bufferView":10,
			"componentType":5126,
			"count":10344,
			"type":"VEC3"
		},
		{
			"bufferView":11,
			"componentType":5126,
			"count":10344,
			"type":"VEC2"
		},
		{
			"bufferView":12,
			"componentType":5126,
			"count":10344,
			"type":"VEC2"
		},
		{
			"bufferView":13,
			"componentType":5123,
			"count":50688,
			"type":"SCALAR"
		}
	],
	"bufferViews":[
		{
			"buffer":0,
			"byteLength":591144,
			"byteOffset":0,
			"target":34962
		},
		{
			"buffer":0,
			"byteLength":591144,
			"byteOffset":591144,
			"target":34962
		},
		{
			"buffer":0,
			"byteLength":394096,
			"byteOffset":1182288,
			"target":34962
		},
		{
			"buffer":0,
			"byteLength":394096,
			"byteOffset":1576384,
			"target":34962
		},
		{
			"buffer":0,
			"byteLength":540660,
			"byteOffset":1970480,
			"target":34963
		},
		{
			"buffer":0,
			"byteLength":312132,
			"byteOffset":2511140,
			"target":34962
		},
		{
			"buffer":0,
			"byteLength":312132,
			"byteOffset":2823272,
			"target":34962
		},
		{
			"buffer":0,
			"byteLength":208088,
			"byteOffset":3135404,
			"target":34962
		},
		{
			"buffer":0,
			"byteLength":312108,
			"byteOffset":3343492,
			"target":34963
		},
		{
			"buffer":0,
			"byteLength":124128,
			"byteOffset":3655600,
			"target":34962
		},
		{
			"buffer":0,
			"byteLength":124128,
			"byteOffset":3779728,
			"target":34962
		},
		{
			"buffer":0,
			"byteLength":82752,
			"byteOffset":3903856,
			"target":34962
		},
		{
			"buffer":0,
			"byteLength":82752,
			"byteOffset":3986608,
			"target":34962
		},
		{
			"buffer":0,
			"byteLength":101376,
			"byteOffset":4069360,
			"target":34963
		}
	],
	"buffers":[
		{
			"byteLength":4170736,
			"uri":"untitled1.bin"
		}
	]
}
